# xmcd CD Database Entry
#
# Track frame offsets:
# 182
# 25792
# 49305
# 70910
# 97940
# 114947
# 139872
# 165672
# 185202
# 206440
# 229650
# 248000
# 270487
#
# Disc length: 4040 seconds
#
# Revision: 3
# Processed by: cddbd v1.4PL0 Copyright (c) Steve Scherf et al.
# Submitted via: tcd 2.0b
#
DISCID=ae0fc60d
DTITLE=Manu Dubango - Wakafrika
DYEAR=1900
DGENRE=
TTITLE0=Soul Makossa
TTITLE1=Biko
TTITLE2=Wakafrika
TTITLE3=Emma
TTITLE4=Homeless
TTITLE5=Lady
TTITLE6=Hi-life
TTITLE7=Wimoweh
TTITLE8=Ami Oh!
TTITLE9=Jingo
TTITLE10=Pata Pata
TTITLE11=Diarabi
TTITLE12=Ca Va Chouia
EXTD=
EXTT0=
EXTT1=
EXTT2=
EXTT3=
EXTT4=
EXTT5=
EXTT6=
EXTT7=
EXTT8=
EXTT9=
EXTT10=
EXTT11=
EXTT12=
PLAYORDER=
